<svg xmlns="http://www.w3.org/2000/svg" viewBox="0 0 460.99 146.75"><defs><style>.cls-1{font-size:88.81px;font-family:ErasITC-Bold, Eras Bold ITC;font-weight:700;}.cls-1,.cls-2,.cls-3,.cls-5{fill:#fff;}.cls-3{stroke:#4f5b62;stroke-miterlimit:10;stroke-width:3px;}.cls-4{opacity:0.76;}.cls-5{font-size:66.19px;font-family:ErasITC-Medium, Eras Medium ITC;font-weight:500;}</style></defs><title>Asset 1</title><g id="Layer_2" data-name="Layer 2"><g id="Layer_1-2" data-name="Layer 1"><text class="cls-1" transform="translate(146.86 124.55) scale(0.92 1)">DB</text><polygon class="cls-2" points="67.59 0 6.82 62.72 128.37 62.72 67.59 0"/><rect class="cls-2" x="24.77" y="62.72" width="85.63" height="61.63"/><polygon class="cls-2" points="44.35 14.19 44.35 23.99 32.18 36.55 32.18 14.19 44.35 14.19"/><rect class="cls-2" x="30.55" y="11.42" width="15.42" height="3.34"/><rect class="cls-2" x="35.43" y="81.14" width="21.08" height="43.22"/><circle class="cls-2" cx="54.48" cy="101.05" r="1.23"/><rect class="cls-3" x="73.76" y="74.53" width="19.36" height="28.21"/><rect class="cls-2" x="82.76" y="74.53" width="1.36" height="28.21"/><rect class="cls-2" x="82.76" y="78.96" width="1.36" height="19.36" transform="translate(172.07 5.2) rotate(90)"/><g class="cls-4"><ellipse class="cls-2" cx="10.83" cy="39.06" rx="7.34" ry="9.52"/><ellipse class="cls-2" cx="6.17" cy="42.9" rx="6.17" ry="5.69"/><ellipse class="cls-2" cx="23.77" cy="36.08" rx="11.43" ry="12.5"/><ellipse class="cls-2" cx="33.01" cy="39.35" rx="7.04" ry="8.6"/><ellipse class="cls-2" cx="41.2" cy="41.89" rx="5.01" ry="6.06"/><ellipse class="cls-2" cx="46.2" cy="43.61" rx="5.56" ry="4.97"/><rect class="cls-2" x="6.17" y="40.89" width="40.03" height="7.7"/></g><g class="cls-4"><ellipse class="cls-2" cx="119.57" cy="116.22" rx="16.59" ry="21.51"/><ellipse class="cls-2" cx="130.09" cy="124.87" rx="13.94" ry="12.85"/><ellipse class="cls-2" cx="90.32" cy="109.49" rx="25.83" ry="28.24"/><ellipse class="cls-2" cx="69.46" cy="116.86" rx="15.91" ry="19.44"/><ellipse class="cls-2" cx="50.95" cy="122.61" rx="11.32" ry="13.68"/><ellipse class="cls-2" cx="39.64" cy="126.49" rx="12.55" ry="11.24"/><rect class="cls-2" x="39.64" y="120.33" width="90.45" height="17.39" transform="translate(169.73 258.06) rotate(-180)"/></g><text class="cls-5" transform="translate(148.22 62.06) scale(0.88 1)">CARETAKER</text></g></g></svg>